<?xml version="1.0" encoding="UTF-8"?>
<!DOCTYPE svg PUBLIC "-//W3C//DTD SVG 1.1//EN" "http://www.w3.org/Graphics/SVG/1.1/DTD/svg11.dtd">
<!-- Creator: CorelDRAW X8 -->
<svg xmlns="http://www.w3.org/2000/svg" xml:space="preserve" width="23.636mm" height="23.636mm" version="1.1" style="shape-rendering:geometricPrecision; text-rendering:geometricPrecision; image-rendering:optimizeQuality; fill-rule:evenodd; clip-rule:evenodd"
viewBox="0 0 2364 2364"
 xmlns:xlink="http://www.w3.org/1999/xlink">
 <defs>
  <style type="text/css">
   <![CDATA[
    .fil0 {fill:#FEFEFE}
   ]]>
  </style>
 </defs>
 <g id="Слой_x0020_1">
  <metadata id="CorelCorpID_0Corel-Layer"/>
  <path class="fil0" d="M1182 -2c-654,0 -1184,530 -1184,1184 0,653 530,1183 1184,1183 653,0 1183,-530 1183,-1183 0,-654 -530,-1184 -1183,-1184zm-581 529c-42,0 -76,34 -76,76 0,41 34,75 76,75 41,0 75,-34 75,-75 0,-42 -34,-76 -75,-76zm1212 1072c-67,0 -121,54 -121,121 0,67 54,122 121,122 67,0 122,-55 122,-122 0,-67 -55,-121 -122,-121zm-492 -9c-67,0 -121,55 -121,122 0,67 54,121 121,121 67,0 122,-54 122,-121 0,-67 -55,-122 -122,-122zm-339 -348c-67,0 -122,54 -122,121 0,67 55,122 122,122 67,0 122,-55 122,-122 0,-67 -55,-121 -122,-121zm1175 16c-67,0 -121,55 -121,122 0,67 54,121 121,121 67,0 122,-54 122,-121 0,-67 -55,-122 -122,-122zm14 -494c-67,0 -122,54 -122,121 0,67 55,122 122,122 67,0 121,-55 121,-122 0,-67 -54,-121 -121,-121zm-341 -352c-67,0 -121,54 -121,121 0,67 54,122 121,122 68,0 122,-55 122,-122 0,-67 -54,-121 -122,-121zm-493 -4c-67,0 -122,55 -122,122 0,67 55,121 122,121 67,0 121,-54 121,-121 0,-67 -54,-122 -121,-122zm-352 344c-67,0 -122,54 -122,121 0,68 55,122 122,122 67,0 121,-54 121,-122 0,-67 -54,-121 -121,-121zm597 209c-92,0 -168,75 -168,168 0,93 76,168 168,168 93,0 168,-75 168,-168 0,-93 -75,-168 -168,-168zm122 423c-37,0 -66,30 -66,66 0,36 29,66 66,66 36,0 65,-30 65,-66 0,-36 -29,-66 -65,-66zm188 -184c-37,0 -66,29 -66,66 0,36 29,66 66,66 36,0 65,-30 65,-66 0,-37 -29,-66 -65,-66zm-454 182c-36,0 -66,29 -66,65 0,37 30,66 66,66 37,0 66,-29 66,-66 0,-36 -29,-65 -66,-65zm-185 -193c-36,0 -66,30 -66,66 0,36 30,66 66,66 36,0 66,-30 66,-66 0,-36 -30,-66 -66,-66zm5 -265c-37,0 -66,30 -66,66 0,37 29,66 66,66 36,0 65,-29 65,-66 0,-36 -29,-66 -65,-66zm187 -183c-37,0 -66,30 -66,66 0,36 29,66 66,66 36,0 65,-30 65,-66 0,-36 -29,-66 -65,-66zm268 2c-37,0 -66,29 -66,66 0,36 29,65 66,65 36,0 66,-29 66,-65 0,-37 -30,-66 -66,-66zm184 191c-36,0 -66,29 -66,65 0,37 30,66 66,66 36,0 66,-29 66,-66 0,-36 -30,-65 -66,-65zm-1159 496c-36,0 -65,29 -65,66 0,36 29,65 65,65 37,0 66,-29 66,-65 0,-37 -29,-66 -66,-66zm-5 -375c-36,0 -66,29 -66,66 0,36 30,65 66,65 36,0 66,-29 66,-65 0,-37 -30,-66 -66,-66zm-435 -120c-37,0 -66,29 -66,65 0,37 29,66 66,66 36,0 66,-29 66,-66 0,-36 -30,-65 -66,-65z"/>
 </g>
</svg>
