<?xml version="1.0" encoding="UTF-8"?>
<!DOCTYPE svg PUBLIC "-//W3C//DTD SVG 1.1//EN" "http://www.w3.org/Graphics/SVG/1.1/DTD/svg11.dtd">
<svg xmlns="http://www.w3.org/2000/svg" xml:space="preserve" width="48px" height="48px" version="1.1" style="shape-rendering:geometricPrecision; text-rendering:geometricPrecision; image-rendering:optimizeQuality; fill-rule:evenodd; clip-rule:evenodd"
viewBox="0 0 48 48"
 xmlns:xlink="http://www.w3.org/1999/xlink">
 <defs>
  <style type="text/css">
   <![CDATA[
    .fil0 {fill:url(#id0)}
   ]]>
  </style>
  <linearGradient id="id0" gradientUnits="userSpaceOnUse" x1="7.02909" y1="40.9709" x2="40.9709" y2="7.02909">
   <stop offset="0" style="stop-opacity:1; stop-color:#CB7E84"/>
   <stop offset="1" style="stop-opacity:1; stop-color:#E7BABE"/>
  </linearGradient>
 </defs>
 <g id="Слой_x0020_1">
  <metadata id="CorelCorpID_0Corel-Layer"/>
  <path class="fil0" d="M24 0c-13,0 -24,11 -24,24 0,13 11,24 24,24 13,0 24,-11 24,-24 0,-13 -11,-24 -24,-24zm12 19l-13 13c0,0 -1,1 -1,1 -1,0 -1,-1 -2,-1l-6 -7c-1,0 -1,-2 0,-2 1,-1 2,-1 3,0l5 5 11 -12c1,-1 2,-1 3,0 1,1 1,2 0,3z"/>
 </g>
</svg>
