<?xml version="1.0" encoding="UTF-8"?>
<!DOCTYPE svg PUBLIC "-//W3C//DTD SVG 1.1//EN" "http://www.w3.org/Graphics/SVG/1.1/DTD/svg11.dtd">
<!-- Creator: CorelDRAW X8 -->
<svg xmlns="http://www.w3.org/2000/svg" xml:space="preserve" width="42.3332mm" height="42.3332mm" version="1.1" style="shape-rendering:geometricPrecision; text-rendering:geometricPrecision; image-rendering:optimizeQuality; fill-rule:evenodd; clip-rule:evenodd"
viewBox="0 0 4233 4233"
 xmlns:xlink="http://www.w3.org/1999/xlink">
 <defs>
  <style type="text/css">
   <![CDATA[
    .fil0 {fill:#FEFEFE;fill-rule:nonzero}
   ]]>
  </style>
 </defs>
 <g id="Слой_x0020_1">
  <metadata id="CorelCorpID_0Corel-Layer"/>
  <path class="fil0" d="M1593 2466c30,-30 79,-30 109,0 30,30 30,79 0,109l-434 434 173 173c31,30 31,79 0,109 -30,30 -79,30 -109,0l-449 -449c-30,-30 -30,-79 0,-109 30,-30 79,-30 109,0l167 167 434 -434zm1512 -1506c31,-30 79,-30 110,0 30,30 30,79 0,109l-339 338c46,56 78,114 96,167 30,88 22,169 -28,219l-1 2 0 0 -789 789 150 149c30,30 30,79 0,109 -30,31 -79,31 -109,0l-655 -654 -1 -2 -2 -1 -223 -223c-30,-31 -30,-79 0,-110 30,-30 79,-30 109,0l170 171 790 -791c54,-53 133,-59 219,-30 54,18 112,51 166,95l337 -337zm-1060 1515l789 -789 0 0c6,-6 3,-30 -8,-62 -17,-51 -54,-109 -109,-164l-3 -3c-2,-2 -3,-3 -5,-5 -51,-50 -107,-88 -157,-105 -30,-10 -52,-13 -60,-6l-790 791 343 343z"/>
  <path class="fil0" d="M4215 1843c76,579 -91,1135 -421,1564 -330,429 -824,733 -1404,808 -579,76 -1135,-91 -1564,-421 -429,-330 -732,-824 -808,-1404 -76,-579 91,-1135 421,-1564 330,-429 824,-733 1404,-808 73,-10 147,-15 221,-17 75,-2 149,0 221,6l-10 130c-70,-5 -140,-7 -208,-6 -69,2 -138,8 -207,17 -544,70 -1007,355 -1317,758 -310,403 -466,924 -395,1467 71,544 355,1007 758,1317 403,310 924,466 1467,395 544,-70 1008,-355 1317,-758 310,-403 466,-924 396,-1467l129 -17z"/>
 </g>
</svg>
