<?xml version="1.0" encoding="UTF-8"?>
<!DOCTYPE svg PUBLIC "-//W3C//DTD SVG 1.1//EN" "http://www.w3.org/Graphics/SVG/1.1/DTD/svg11.dtd">
<!-- Creator: CorelDRAW X8 -->
<svg xmlns="http://www.w3.org/2000/svg" xml:space="preserve" width="42.3332mm" height="42.3332mm" version="1.1" style="shape-rendering:geometricPrecision; text-rendering:geometricPrecision; image-rendering:optimizeQuality; fill-rule:evenodd; clip-rule:evenodd"
viewBox="0 0 4233 4233"
 xmlns:xlink="http://www.w3.org/1999/xlink">
 <defs>
  <style type="text/css">
   <![CDATA[
    .fil0 {fill:#E7BABE}
    .fil1 {fill:#FEFEFE;fill-rule:nonzero}
   ]]>
  </style>
 </defs>
 <g id="Слой_x0020_1">
  <metadata id="CorelCorpID_0Corel-Layer"/>
  <circle class="fil0" cx="2117" cy="2117" r="2117"/>
  <path class="fil1" d="M3859 1884c62,476 -75,933 -346,1286 -272,352 -678,602 -1154,664 -476,62 -933,-75 -1286,-346 -353,-272 -602,-678 -664,-1154 -62,-477 75,-933 346,-1286 272,-353 678,-602 1154,-664 60,-8 121,-13 182,-14 61,-2 122,0 182,4l-9 108c-58,-5 -115,-6 -171,-5 -57,1 -113,6 -170,13 -447,59 -828,292 -1083,624 -254,331 -383,759 -324,1206 58,447 292,828 623,1082 331,255 759,383 1206,325 447,-58 828,-292 1083,-623 254,-331 383,-759 324,-1206l107 -14z"/>
  <path class="fil1" d="M1330 2580c14,-5 28,-11 40,-18 14,-9 26,-19 37,-30 11,-11 21,-23 29,-37 7,-13 14,-26 18,-40l-42 -153c-3,-10 -1,-21 4,-29 5,-9 13,-15 23,-18 10,-3 20,-1 29,4 8,5 15,13 18,23l42 152c11,10 23,19 36,26 14,7 28,13 44,17 28,7 51,2 81,-5l1 0 115 -111 467 -465 -6 -7c-6,-8 -12,-16 -18,-24 -5,-7 -9,-15 -13,-22 -12,-23 -22,-46 -29,-68 -7,-23 -11,-45 -13,-65 -1,-23 0,-44 6,-64 5,-18 14,-35 27,-48 12,-15 29,-30 43,-43 -5,-22 -8,-43 -10,-64 -1,-22 0,-44 3,-64 4,-25 11,-48 22,-70 10,-19 22,-37 37,-53l0 -1 3 -3c4,-3 7,-6 11,-10 4,-3 7,-5 10,-8 1,-2 2,-3 3,-4 2,-3 3,-5 5,-6l83 -83c28,-28 64,-46 104,-54 41,-8 87,-6 135,5 44,11 91,31 136,58 44,26 87,59 126,99 38,38 72,80 99,126 28,46 47,92 58,136 12,48 14,94 6,136 -8,40 -26,75 -55,104l-82 82c-10,10 -19,19 -29,29 -8,8 -17,16 -27,23 -10,7 -20,13 -31,18 -11,5 -22,10 -34,13 -11,4 -24,7 -36,8 -12,2 -24,-1 -33,-8 -10,-7 -16,-17 -18,-30 -2,-12 1,-24 8,-33 7,-9 18,-16 30,-18 8,-1 16,-3 23,-5 7,-2 14,-5 21,-8 6,-3 12,-7 17,-11 6,-3 11,-8 16,-13 18,-18 30,-41 36,-68 5,-29 5,-61 -3,-96 -8,-37 -23,-76 -45,-114 -22,-37 -50,-74 -84,-108 -34,-34 -70,-62 -107,-83 -39,-23 -78,-38 -115,-46 -34,-7 -67,-8 -95,-2 -27,5 -51,17 -69,35 -10,10 -18,21 -24,34 -6,13 -10,27 -13,43 -1,8 -2,17 -2,27l0 6 53 -53c18,-18 43,-30 73,-34 28,-5 61,-3 95,7 29,8 59,20 89,38 27,17 55,38 80,63 25,26 46,53 63,81 18,30 31,60 39,89 9,34 11,66 7,95 -5,29 -16,54 -35,72 -58,58 -115,117 -174,175 -18,17 -42,28 -70,33 -28,5 -60,3 -93,-6 -24,-6 -50,-16 -76,-30 -22,-12 -44,-26 -65,-43l-466 464 -114 118c-3,15 -5,27 -5,40 0,13 2,25 6,40 4,15 10,30 18,44 7,13 16,25 26,36l153 40c10,2 18,9 23,17 5,9 7,19 4,29 -2,10 -9,19 -17,24 -9,5 -19,6 -29,4l-154 -40c-14,4 -27,11 -40,18 -13,8 -26,18 -37,29 -11,12 -20,24 -29,38 -7,12 -13,26 -18,40l42 153c3,10 1,21 -3,29 -5,9 -13,15 -24,18l-1 0c-10,3 -19,1 -28,-4 -8,-4 -15,-13 -17,-23l-42 -152c-12,-10 -24,-19 -37,-26 -13,-8 -28,-13 -43,-17 -16,-4 -31,-6 -47,-7 -15,0 -29,2 -44,5l-111 113c-8,7 -17,11 -27,11 -10,0 -20,-4 -27,-11 -8,-7 -12,-17 -12,-27 0,-10 4,-20 11,-27l112 -113c3,-14 4,-29 4,-44 -1,-16 -3,-31 -7,-47 -4,-15 -10,-29 -18,-43 -7,-13 -16,-25 -26,-36l-154 -40c-10,-3 -18,-9 -23,-18 -5,-8 -7,-18 -4,-29 3,-10 9,-18 18,-23 8,-5 18,-7 29,-4l153 40zm1078 -805c14,-13 36,-13 49,1 14,13 14,35 0,49l-73 72c38,31 77,51 112,60 39,10 72,7 87,-8 51,-51 -35,-184 -74,-223l-2 -2c-45,-44 -94,-71 -138,-81 -36,-9 -67,-6 -82,7l-2 1 -1 2c-9,10 -12,28 -11,51 2,29 13,65 33,101 5,11 14,23 23,34 2,3 4,6 6,9l73 -73zm582 -34c35,-36 43,-96 26,-162 -18,-74 -65,-154 -135,-225 -66,-62 -136,-114 -225,-136 -67,-16 -126,-9 -163,27 25,0 50,2 76,8 87,19 182,70 262,150 80,81 132,175 151,263 5,25 8,51 8,75zm-624 -170c6,1 13,2 19,4 55,13 117,46 171,99l2 2c52,52 85,111 99,165 3,9 5,19 6,28l94 -94c15,-15 18,-49 7,-89 -12,-43 -39,-91 -82,-134 -43,-43 -90,-69 -133,-81 -41,-11 -75,-9 -90,7l-93 93zm-912 1008c-21,22 -47,40 -76,53 19,26 32,54 41,84 8,30 11,61 8,92 31,-3 62,0 92,7 30,8 59,21 85,39 12,-28 30,-54 52,-76 22,-22 47,-40 76,-53 -19,-26 -32,-54 -40,-84 -8,-30 -11,-61 -8,-93 -32,4 -63,1 -93,-7 -30,-7 -59,-21 -84,-39 -13,29 -31,55 -53,77z"/>
 </g>
</svg>
