<?xml version="1.0" encoding="UTF-8"?>
<!DOCTYPE svg PUBLIC "-//W3C//DTD SVG 1.1//EN" "http://www.w3.org/Graphics/SVG/1.1/DTD/svg11.dtd">
<!-- Creator: CorelDRAW X8 -->
<svg xmlns="http://www.w3.org/2000/svg" xml:space="preserve" width="2.5398mm" height="2.5398mm" version="1.1" style="shape-rendering:geometricPrecision; text-rendering:geometricPrecision; image-rendering:optimizeQuality; fill-rule:evenodd; clip-rule:evenodd"
viewBox="0 0 254 254"
 xmlns:xlink="http://www.w3.org/1999/xlink">
 <defs>
  <style type="text/css">
   <![CDATA[
    .fil0 {fill:#E7BABE}
    .fil1 {fill:white}
   ]]>
  </style>
 </defs>
 <g id="Слой_x0020_1">
  <metadata id="CorelCorpID_0Corel-Layer"/>
  <circle class="fil0" cx="127" cy="127" r="127"/>
  <path class="fil1" d="M80 123l84 0 -14 -14c-1,-1 -1,-4 0,-5 2,-2 4,-2 6,0l21 20c0,0 0,0 0,0 1,2 1,4 0,6 0,0 0,0 0,0l-21 20c-2,2 -4,2 -6,0 -1,-1 -1,-4 0,-5l14 -14 -84 0c-2,0 -4,-2 -4,-4 0,-2 2,-4 4,-4z"/>
 </g>
</svg>
