<?xml version="1.0" encoding="UTF-8"?>
<!DOCTYPE svg PUBLIC "-//W3C//DTD SVG 1.1//EN" "http://www.w3.org/Graphics/SVG/1.1/DTD/svg11.dtd">
<!-- Creator: CorelDRAW X7 -->
<svg xmlns="http://www.w3.org/2000/svg" xml:space="preserve" width="1422px" height="601px" version="1.1" style="shape-rendering:geometricPrecision; text-rendering:geometricPrecision; image-rendering:optimizeQuality; fill-rule:evenodd; clip-rule:evenodd"
viewBox="0 0 1422 601"
 xmlns:xlink="http://www.w3.org/1999/xlink">
 <defs>
  <style type="text/css">
   <![CDATA[
    .fil2 {fill:#FEFEFE}
    .fil1 {fill:#CA7B81}
    .fil0 {fill:#652B3A;fill-rule:nonzero}
   ]]>
  </style>
 </defs>
 <g id="__x0023_Layer_x0020_1">
  <metadata id="CorelCorpID_0Corel-Layer"/>
  <path class="fil0" d="M591 510c-8,0 -15,3 -21,7 -6,4 -11,11 -14,19 -3,8 -5,17 -5,27 0,8 2,15 6,19 5,5 10,8 18,8 6,0 14,-2 22,-4l0 10c-8,3 -16,4 -24,4 -11,0 -20,-3 -26,-10 -6,-6 -9,-15 -9,-27 0,-12 2,-22 7,-32 4,-10 11,-18 19,-23 8,-6 17,-8 27,-8 9,0 17,1 24,5l-5 10c-6,-3 -13,-5 -19,-5z"/>
  <polygon id="1" class="fil0" points="614,599 635,501 647,501 629,588 666,588 664,599 "/>
  <polygon id="2" class="fil0" points="706,599 672,599 673,592 685,590 701,510 691,508 692,501 727,501 725,508 714,510 697,590 707,592 "/>
  <path id="3" class="fil0" d="M796 599l-13 0 -30 -81 -1 0c-1,7 -2,17 -5,28l-11 53 -12 0 21 -98 13 0 30 81 1 0c0,-4 1,-9 2,-15 1,-5 2,-9 3,-12l11 -54 12 0 -21 98z"/>
  <polygon id="4" class="fil0" points="848,599 813,599 815,592 827,590 843,510 833,508 834,501 869,501 867,508 855,510 839,590 849,592 "/>
  <path id="5" class="fil0" d="M924 510c-8,0 -15,3 -21,7 -6,4 -11,11 -14,19 -4,8 -5,17 -5,27 0,8 2,15 6,19 4,5 10,8 18,8 6,0 13,-2 22,-4l0 10c-8,3 -16,4 -24,4 -11,0 -20,-3 -26,-10 -6,-6 -9,-15 -9,-27 0,-12 2,-22 7,-32 4,-10 11,-18 19,-23 8,-6 17,-8 27,-8 9,0 17,1 24,5l-5 10c-6,-3 -13,-5 -19,-5z"/>
  <g id="_2501683091280">
   <path class="fil0" d="M403 410l0 -328 12 0c14,0 27,5 37,16 5,5 9,11 12,17 3,6 4,13 4,20 0,1 0,2 0,3 0,1 0,2 -1,4l0 3 -1 3c-2,3 -3,6 -5,9 -1,3 -3,6 -5,9 -3,4 -6,7 -10,10 11,3 21,7 30,13 12,7 22,16 32,27 9,12 16,24 21,37 4,13 7,26 7,40 0,17 -3,32 -9,46 -6,14 -15,27 -27,39 -11,12 -24,21 -39,26 -14,6 -29,9 -46,9l-12 1 0 -4zm863 -233l17 0 61 199 60 -199 17 0c-33,107 -66,215 -100,323l-17 0 31 -100 -68 -220 -1 -3zm-3 0l0 15 -63 0 0 146c0,8 2,15 5,22 3,7 7,14 13,20 6,6 13,10 20,13 7,3 14,5 22,5l3 0 0 3 0 13 -3 0c-10,-1 -20,-3 -28,-6 -9,-4 -17,-10 -25,-17 -7,-8 -13,-16 -17,-25 -4,-8 -6,-18 -6,-28l0 -146 -18 0 0 -15 18 0 0 -42 16 0 0 42 63 0zm-845 11l0 210c28,-1 51,-11 71,-31 11,-10 18,-22 23,-34 6,-12 8,-26 8,-40 0,-15 -2,-28 -8,-40 -5,-13 -12,-24 -23,-34 -10,-11 -21,-18 -34,-24 -11,-4 -23,-7 -37,-7zm0 -91l0 75c9,-1 16,-5 23,-11 4,-4 7,-8 9,-12 1,-5 2,-9 2,-14 0,-5 -1,-10 -2,-14 -2,-5 -5,-9 -9,-12 -4,-4 -8,-7 -12,-9 -3,-1 -7,-2 -11,-3zm163 264c4,5 8,10 13,14 6,4 13,9 20,12 14,7 29,11 45,11 16,0 31,-4 46,-11 7,-3 13,-8 19,-12 6,-5 12,-10 16,-16l1 -2 20 0 -3 6c-11,15 -25,27 -43,36 -17,10 -36,14 -56,14 -33,0 -62,-12 -85,-35 -12,-12 -21,-25 -27,-39 -6,-14 -9,-29 -9,-46 0,-17 3,-32 9,-47 6,-14 15,-27 27,-39 11,-11 24,-20 39,-26 14,-6 29,-9 46,-9 10,0 20,1 30,4 9,2 18,5 27,10 9,5 17,10 24,17 8,6 14,14 19,22l2 3 -180 133zm-11 -13l168 -124c-4,-5 -8,-9 -13,-13 -6,-5 -13,-9 -20,-13 -15,-7 -30,-10 -46,-10 -14,0 -27,2 -40,7 -12,6 -23,13 -34,24 -10,10 -18,22 -23,34 -5,12 -8,25 -8,40 0,11 1,21 4,31 2,5 4,10 6,14 2,4 4,7 6,10zm416 -115l0 -56 15 0 0 232 -15 0 0 -57c-4,6 -7,12 -12,17 -7,9 -16,17 -26,23 -10,7 -20,13 -32,16 -11,3 -23,5 -36,5 -33,0 -61,-12 -85,-35 -12,-12 -21,-25 -27,-39 -5,-14 -8,-29 -8,-46 0,-17 3,-32 8,-47 6,-14 15,-27 27,-39 12,-11 25,-20 39,-26 14,-6 30,-9 46,-9 13,0 25,2 36,5 12,4 22,9 32,16 10,7 19,14 26,23 5,6 8,11 12,17zm-106 -45c-14,0 -27,2 -39,7 -12,6 -24,13 -34,24 -11,10 -19,22 -24,34 -5,12 -8,25 -8,40 0,14 3,27 8,39 5,13 13,24 24,35 21,20 45,31 73,31 15,0 28,-3 40,-8 13,-5 24,-13 34,-23 11,-11 19,-22 24,-35 5,-12 8,-25 8,-39 0,-29 -11,-53 -32,-74 -20,-21 -45,-31 -74,-31zm281 221l-13 0 0 -28c-1,2 -3,4 -5,7 -5,5 -10,9 -16,13 -6,4 -12,7 -19,9 -6,2 -13,3 -20,3 -10,0 -19,-2 -28,-5 -9,-4 -17,-10 -25,-17 -7,-8 -13,-16 -17,-25 -3,-8 -5,-18 -5,-28l0 -161 15 0 0 161c0,8 2,15 5,22 3,7 7,14 13,20 6,6 13,10 20,13 7,3 14,5 22,5 8,0 16,-2 23,-5 7,-3 13,-7 19,-13 6,-6 11,-13 14,-20 3,-7 4,-14 4,-22l0 -161 16 0 0 232 -3 0z"/>
   <path class="fil0" d="M656 105l0 -105 24 0 43 90 44 -90 23 0 0 105 -13 0 0 -96 -47 96 -13 0 -47 -96 0 96 -14 0zm152 0l0 -105 79 0 0 10 -65 0 0 36 62 0 0 10 -62 0 0 39 65 0 0 10 -79 0zm153 -10c12,0 19,-3 24,-8 4,-5 6,-14 6,-27l0 -23c0,-7 -2,-13 -6,-18 -4,-6 -11,-9 -20,-9l-48 0 0 85 44 0zm5 10l-63 0 0 -105 60 0c17,0 29,5 35,15 4,6 6,15 6,26l0 22c0,19 -6,32 -18,38 -5,3 -12,4 -20,4zm58 -105l13 0 0 105 -13 0 0 -105zm114 33l0 -4c0,-8 -2,-13 -5,-16 -3,-2 -10,-3 -19,-3l-3 0c-4,0 -8,0 -12,0 -4,0 -8,1 -12,1 -4,1 -8,2 -11,5 -4,4 -6,9 -6,15l0 35c0,13 3,21 7,25 2,1 3,2 5,3l6 1 8 1 8 0 8 0c2,0 4,0 6,0 2,0 3,-1 4,-1 6,0 11,-2 14,-4 2,-2 4,-5 4,-9l0 -13 14 0 0 6c0,11 -3,19 -8,23 -5,5 -15,8 -31,8l-9 0 -13 0c-6,0 -11,-1 -14,-2 -4,-1 -8,-3 -13,-6 -2,-2 -5,-6 -6,-10 -2,-5 -3,-9 -3,-14l0 -42c0,-10 2,-17 7,-22 5,-5 11,-8 18,-9 7,-1 17,-2 28,-2 3,0 6,0 9,0 3,0 5,0 7,1 7,0 12,2 17,5 6,4 9,13 9,25l0 3 -14 0zm79 63c2,0 3,0 4,0 6,0 11,-1 16,-1 4,-1 7,-2 9,-4 2,-2 4,-4 4,-7 1,-3 1,-7 1,-12l0 -72 14 0 0 75c0,11 -3,19 -10,24 -4,3 -9,5 -16,6 -4,0 -7,0 -11,0 -4,1 -9,1 -14,1l-2 0 -3 0 -2 0c-2,0 -4,0 -6,0 -2,0 -4,-1 -6,-1 -4,0 -9,-2 -13,-4 -5,-2 -8,-5 -10,-9 -2,-5 -3,-10 -3,-15l0 -77 13 0 0 76c0,8 2,14 6,16 2,1 6,2 10,3l16 1 3 0zm71 9l0 -105 24 0 43 90 43 -90 24 0 0 105 -14 0 0 -96 -46 96 -14 0 -46 -96 0 96 -14 0z"/>
   <g>
    <path class="fil1" d="M155 104c-86,0 -155,69 -155,155 0,85 69,155 155,155 85,0 155,-70 155,-155 0,-86 -70,-155 -155,-155z"/>
    <path class="fil2" d="M79 173c-6,0 -10,4 -10,10 0,5 4,10 10,10 5,0 10,-5 10,-10 0,-6 -5,-10 -10,-10z"/>
    <path class="fil2" d="M39 226c-5,0 -8,4 -8,9 0,5 3,9 8,9 5,0 9,-4 9,-9 0,-5 -4,-9 -9,-9z"/>
    <path class="fil2" d="M96 242c-5,0 -9,4 -9,9 0,4 4,8 9,8 5,0 9,-4 9,-8 0,-5 -4,-9 -9,-9z"/>
    <path class="fil2" d="M97 291c-5,0 -9,4 -9,9 0,5 4,8 9,8 5,0 8,-3 8,-8 0,-5 -3,-9 -8,-9z"/>
    <path class="fil2" d="M248 226c-4,0 -8,4 -8,9 0,5 4,8 8,8 5,0 9,-3 9,-8 0,-5 -4,-9 -9,-9z"/>
    <path class="fil2" d="M224 201c-4,0 -8,4 -8,9 0,5 4,9 8,9 5,0 9,-4 9,-9 0,-5 -4,-9 -9,-9z"/>
    <path class="fil2" d="M189 201c-5,0 -8,4 -8,9 0,4 3,8 8,8 5,0 9,-4 9,-8 0,-5 -4,-9 -9,-9z"/>
    <path class="fil2" d="M165 225c-5,0 -9,4 -9,9 0,4 4,8 9,8 4,0 8,-4 8,-8 0,-5 -4,-9 -8,-9z"/>
    <path class="fil2" d="M164 260c-5,0 -8,4 -8,8 0,5 3,9 8,9 5,0 9,-4 9,-9 0,-4 -4,-8 -9,-8z"/>
    <path class="fil2" d="M188 285c-4,0 -8,4 -8,8 0,5 4,9 8,9 5,0 9,-4 9,-9 0,-4 -4,-8 -9,-8z"/>
    <path class="fil2" d="M248 261c-5,0 -9,4 -9,9 0,4 4,8 9,8 4,0 8,-4 8,-8 0,-5 -4,-9 -8,-9z"/>
    <path class="fil2" d="M223 285c-5,0 -9,4 -9,9 0,5 4,8 9,8 5,0 9,-3 9,-8 0,-5 -4,-9 -9,-9z"/>
    <path class="fil2" d="M207 230c-12,0 -22,10 -22,22 0,12 10,22 22,22 12,0 22,-10 22,-22 0,-12 -10,-22 -22,-22z"/>
    <path class="fil2" d="M129 202c-9,0 -16,8 -16,16 0,9 7,16 16,16 9,0 16,-7 16,-16 0,-8 -7,-16 -16,-16z"/>
    <path class="fil2" d="M175 158c-9,0 -16,7 -16,15 0,9 7,16 16,16 9,0 16,-7 16,-16 0,-8 -7,-15 -16,-15z"/>
    <path class="fil2" d="M240 158c-9,0 -16,7 -16,16 0,9 7,16 16,16 8,0 16,-7 16,-16 0,-9 -8,-16 -16,-16z"/>
    <path class="fil2" d="M284 204c-9,0 -16,7 -16,16 0,9 7,16 16,16 9,0 16,-7 16,-16 0,-9 -7,-16 -16,-16z"/>
    <path class="fil2" d="M282 269c-8,0 -15,7 -15,16 0,8 7,16 15,16 9,0 16,-8 16,-16 0,-9 -7,-16 -16,-16z"/>
    <path class="fil2" d="M129 267c-9,0 -16,7 -16,15 0,9 7,16 16,16 8,0 16,-7 16,-16 0,-8 -8,-15 -16,-15z"/>
    <path class="fil2" d="M173 312c-9,0 -16,7 -16,16 0,9 7,16 16,16 9,0 16,-7 16,-16 0,-9 -7,-16 -16,-16z"/>
    <path class="fil2" d="M237 313c-8,0 -15,7 -15,16 0,9 7,16 15,16 9,0 16,-7 16,-16 0,-9 -7,-16 -16,-16z"/>
   </g>
  </g>
 </g>
</svg>
