<?xml version="1.0" encoding="UTF-8"?>
<!DOCTYPE svg PUBLIC "-//W3C//DTD SVG 1.1//EN" "http://www.w3.org/Graphics/SVG/1.1/DTD/svg11.dtd">
<!-- Creator: CorelDRAW X8 -->
<svg xmlns="http://www.w3.org/2000/svg" xml:space="preserve" width="86.7832mm" height="40.2166mm" version="1.1" style="shape-rendering:geometricPrecision; text-rendering:geometricPrecision; image-rendering:optimizeQuality; fill-rule:evenodd; clip-rule:evenodd"
viewBox="0 0 8678 4022"
 xmlns:xlink="http://www.w3.org/1999/xlink">
 <defs>
  <style type="text/css">
   <![CDATA[
    .fil2 {fill:#FEFEFE}
    .fil1 {fill:#CA7B81}
    .fil0 {fill:#652B3A;fill-rule:nonzero}
   ]]>
  </style>
 </defs>
 <g id="Слой_x0020_1">
  <metadata id="CorelCorpID_0Corel-Layer"/>
  <path class="fil0" d="M274 3923l-58 0 -122 -201 -42 201 -51 0 86 -405 50 0 -41 197 191 -197 61 0 -200 203 126 202zm230 -359c-28,103 -49,175 -62,218 -14,42 -26,73 -37,92 -11,19 -23,33 -38,42 -15,9 -32,13 -53,13 -14,0 -26,-2 -35,-6l0 -45c9,4 19,6 28,6 15,0 27,-4 37,-12 9,-8 18,-21 27,-40 9,-18 20,-50 34,-96 14,-45 34,-118 61,-218l201 0 -86 405 -51 0 77 -359 -103 0zm291 359l-142 0 6 -28 48 -11 69 -327 -43 -11 6 -28 141 0 -5 28 -49 11 -69 327 44 11 -6 28zm355 0l-50 0 40 -189 -178 0 -40 189 -50 0 86 -405 50 0 -36 171 178 0 36 -171 50 0 -86 405zm214 0l-142 0 6 -28 48 -11 69 -327 -43 -11 6 -28 142 0 -6 28 -49 11 -69 327 44 11 -6 28zm349 0l-58 0 -122 -201 -42 201 -50 0 85 -405 51 0 -42 197 191 -197 61 0 -200 203 126 202zm248 -126l-136 0 -66 126 -55 0 219 -405 54 0 50 405 -50 0 -16 -126zm-5 -45l-9 -85c-5,-42 -7,-74 -7,-95 -6,14 -13,28 -20,43 -7,14 -30,60 -71,137l107 0zm474 171l-205 0 85 -405 206 0 -10 45 -155 0 -26 126 144 0 -8 45 -145 0 -32 144 156 0 -10 45zm323 -366c-33,0 -61,9 -86,28 -25,18 -44,44 -58,78 -14,34 -21,70 -21,110 0,34 8,61 26,81 17,20 42,30 73,30 26,0 56,-6 89,-17l0 45c-30,11 -63,16 -98,16 -45,0 -81,-13 -106,-41 -26,-27 -38,-65 -38,-113 0,-48 9,-92 28,-133 20,-42 46,-74 79,-96 33,-22 70,-32 112,-32 38,0 70,7 98,22l-20 42c-26,-13 -52,-20 -78,-20zm210 366l-51 0 76 -360 -112 0 10 -45 273 0 -9 45 -111 0 -76 360zm375 0l-205 0 85 -405 206 0 -10 45 -155 0 -27 126 145 0 -9 45 -144 0 -32 144 156 0 -10 45zm200 0l-51 0 76 -360 -111 0 10 -45 273 0 -9 45 -111 0 -77 360zm232 -73l257 -332 58 0 -85 405 -48 0c38,-178 59,-278 64,-299 5,-21 8,-34 9,-39l-1 0 -257 338 -59 0 86 -405 48 0 -48 223c-11,52 -20,89 -25,109l1 0zm543 73l35 -165c-38,16 -74,24 -110,24 -28,0 -50,-6 -65,-20 -15,-13 -23,-32 -23,-57 0,-13 2,-29 6,-46l31 -141 50 0 -30 140c-3,17 -5,29 -5,37 0,14 4,24 11,32 8,7 20,10 39,10 30,0 65,-7 105,-22l41 -197 51 0 -85 405 -51 0zm436 0l-50 0 40 -189 -178 0 -40 189 -51 0 86 -405 51 0 -37 171 178 0 36 -171 50 0 -85 405zm474 -252c0,51 -8,96 -25,136 -17,39 -40,69 -70,90 -30,21 -65,31 -105,31 -47,0 -84,-13 -111,-41 -26,-27 -39,-66 -39,-115 0,-49 9,-93 26,-133 18,-41 42,-72 73,-94 31,-22 66,-33 106,-33 45,0 81,14 106,42 26,29 39,68 39,117zm-149 -114c-28,0 -54,9 -76,27 -23,18 -40,44 -53,77 -12,33 -18,69 -18,109 0,36 9,64 26,84 18,20 41,30 72,30 27,0 52,-9 74,-27 22,-18 39,-43 51,-77 13,-33 19,-70 19,-110 0,-35 -8,-63 -25,-83 -17,-20 -40,-30 -70,-30zm297 366l-142 0 6 -28 48 -11 69 -327 -43 -11 6 -28 142 0 -6 28 -49 11 -69 327 44 11 -6 28zm-52 -475c0,-10 3,-17 8,-23 5,-6 13,-9 22,-9 15,0 23,7 23,22 0,9 -3,17 -8,24 -6,6 -12,10 -21,10 -7,0 -13,-2 -17,-6 -5,-4 -7,-10 -7,-18zm102 0c0,-10 3,-17 8,-24 6,-5 13,-8 22,-8 8,0 14,2 17,6 4,4 6,9 6,16 0,10 -3,18 -9,24 -5,7 -12,10 -20,10 -7,0 -13,-2 -17,-6 -5,-4 -7,-10 -7,-18zm372 401l179 -331 78 0 -84 405 -51 0 51 -240c11,-53 20,-91 27,-116l-1 0 -195 356 -40 0 -43 -355 -2 0c-3,29 -9,66 -19,112l-51 243 -48 0 86 -405 71 0 40 331 2 0zm484 74l-206 0 86 -405 205 0 -9 45 -155 0 -27 126 145 0 -9 45 -145 0 -31 144 155 0 -9 45zm47 -46l29 0c35,-49 70,-108 104,-177 33,-68 57,-129 70,-182l165 0 -76 359 52 0 -33 152 -48 0 22 -106 -247 0 -23 106 -47 0 32 -152zm239 -313c-7,25 -19,58 -37,98 -17,41 -37,81 -58,120 -22,40 -41,71 -58,95l155 0 67 -313 -69 0zm219 286l256 -332 59 0 -85 405 -48 0c38,-178 59,-278 64,-299 5,-21 8,-34 9,-39l-1 0 -257 338 -59 0 85 -405 48 0 -47 223c-12,52 -20,89 -25,109l1 0zm664 27l-33 152 -48 0 23 -106 -271 0 86 -405 51 0 -76 359 170 0 76 -359 51 0 -76 359 47 0zm114 -27l256 -332 59 0 -85 405 -48 0c38,-178 59,-278 64,-299 5,-21 8,-34 9,-39l-1 0 -257 338 -59 0 85 -405 49 0 -48 223c-12,52 -20,89 -25,109l1 0zm615 73l-50 0 39 -189 -177 0 -40 189 -51 0 86 -405 50 0 -36 171 178 0 36 -171 50 0 -85 405zm168 -73l257 -332 59 0 -86 405 -47 0c37,-178 58,-278 63,-299 5,-21 8,-34 10,-39l-1 0 -258 338 -59 0 86 -405 48 0 -48 223c-11,52 -19,89 -25,109l1 0z"/>
  <path class="fil0" d="M2453 2497l0 -2001 75 0c86,0 162,33 226,97 32,32 56,67 73,105 16,38 24,78 24,121 0,7 0,14 -1,21 -1,7 -2,14 -4,21l-4 19 -6 20c-7,20 -15,39 -25,57 -11,19 -22,37 -36,55 -17,22 -35,42 -55,59 64,16 125,42 181,77 69,42 133,99 190,169 58,70 101,144 129,221 29,78 44,159 44,244 0,102 -18,196 -54,283 -36,86 -90,165 -161,236 -72,71 -151,125 -238,160 -87,36 -181,54 -283,54l-75 4 0 -22zm5255 -1423l103 0 370 1216 370 -1216 103 0c-203,656 -405,1311 -609,1966l-103 0 188 -606 -415 -1339 -7 -21zm-15 0l0 96 -385 0 0 887c0,49 9,94 27,137 18,42 46,82 82,119 37,36 77,64 119,82 42,18 88,27 137,27l20 0 0 20 0 76 -21 0c-61,-1 -119,-13 -172,-37 -54,-23 -104,-57 -150,-103 -46,-45 -80,-95 -103,-148 -23,-54 -35,-111 -35,-173l0 -887 -110 0 0 -96 110 0 0 -252 96 0 0 252 385 0zm-5145 68l0 1280c168,-5 312,-67 432,-188 63,-63 110,-132 141,-207 31,-75 47,-157 47,-245 0,-88 -16,-170 -47,-245 -31,-75 -78,-144 -141,-207 -63,-63 -132,-110 -207,-141 -69,-29 -144,-44 -225,-47zm0 -549l0 453c52,-5 99,-27 139,-68 23,-23 40,-47 51,-74 12,-26 17,-54 17,-85 0,-30 -5,-58 -17,-85 -11,-26 -28,-51 -51,-74 -23,-23 -48,-40 -74,-51 -20,-9 -42,-14 -65,-16zm988 1606c25,29 53,57 83,82 36,29 75,54 118,76 85,43 177,65 277,65 97,0 190,-22 277,-65 43,-22 84,-47 120,-77 36,-29 69,-61 99,-98l6 -7 120 0 -23 31c-66,95 -151,170 -256,225 -104,56 -219,84 -343,84 -204,0 -377,-71 -521,-214 -71,-71 -125,-150 -161,-236 -36,-87 -54,-181 -54,-283 0,-101 18,-196 54,-283 36,-87 90,-166 161,-237 72,-72 151,-126 238,-162 87,-35 181,-53 283,-53 62,0 122,7 180,21 58,15 115,36 169,65 54,29 103,63 146,102 43,40 81,84 113,135l10 15 -1096 814zm-63 -79l1021 -757c-24,-29 -50,-56 -80,-80 -36,-29 -76,-54 -120,-76 -89,-43 -183,-65 -280,-65 -87,0 -167,16 -242,47 -75,32 -144,79 -208,143 -63,63 -111,132 -143,207 -31,75 -47,156 -47,243 0,66 9,129 28,190 9,30 21,58 34,86 11,21 24,42 37,62zm2529 -702l0 -344 95 0 0 1416 -95 0 0 -345c-20,36 -43,69 -69,100 -44,54 -97,102 -158,144 -61,42 -127,73 -196,94 -69,21 -141,32 -217,32 -204,0 -377,-71 -521,-214 -71,-71 -125,-150 -161,-236 -36,-87 -54,-181 -54,-283 0,-101 18,-196 54,-283 36,-87 90,-166 161,-237 72,-72 151,-126 238,-162 87,-35 181,-53 283,-53 76,0 148,10 217,31 69,21 135,53 196,95 61,41 114,90 158,144 26,32 49,65 69,101zm-640 -276c-87,0 -167,16 -242,47 -75,32 -144,79 -208,143 -63,63 -111,132 -143,207 -31,75 -47,156 -47,243 0,86 16,167 47,242 32,74 80,144 143,207 128,128 277,191 450,191 87,0 168,-16 243,-47 75,-32 144,-80 207,-144 64,-63 111,-133 143,-207 31,-75 47,-156 47,-242 0,-174 -63,-324 -190,-450 -126,-127 -276,-190 -450,-190zm1705 1348l-75 0 0 -173c-10,15 -22,28 -34,42 -28,30 -60,58 -95,82 -36,25 -74,43 -113,56 -40,12 -80,18 -123,18 -61,0 -119,-11 -173,-34 -54,-23 -103,-57 -149,-103 -46,-45 -81,-95 -104,-148 -23,-54 -34,-111 -34,-173l0 -983 95 0 0 983c0,49 9,94 28,137 18,42 45,82 82,119 37,36 76,64 119,82 42,18 88,27 136,27 49,0 94,-9 137,-27 42,-18 82,-46 118,-82 37,-37 65,-77 83,-119 18,-43 27,-88 27,-137l0 -983 96 0 0 1416 -21 0z"/>
  <path class="fil0" d="M3996 638l0 -638 147 0 262 546 263 -546 146 0 0 638 -84 0 0 -584 -282 584 -83 0 -282 -583 -2 583 -85 0zm927 0l0 -638 477 0 0 63 -394 0 0 218 377 0 0 60 -377 0 0 234 394 0 0 63 -477 0zm931 -63c70,0 117,-14 141,-44 25,-30 38,-85 38,-163l0 -142c0,-42 -12,-80 -36,-113 -25,-34 -64,-50 -120,-50l-294 0 0 512 271 0zm29 63l-383 0 0 -638 363 0c102,0 175,31 217,93 24,37 36,89 36,156l0 137c0,115 -38,191 -113,228 -30,16 -70,24 -120,24zm351 -638l83 0 0 638 -83 0 0 -638zm696 200l0 -25c0,-48 -10,-79 -30,-94 -21,-15 -59,-22 -115,-22l-17 0c-27,0 -53,0 -76,2 -24,1 -48,3 -74,6 -26,3 -49,13 -68,30 -22,22 -33,53 -33,93l0 209c0,81 14,132 43,154 9,8 19,14 31,18l36 8 47 3 51 0 49 0c11,0 22,0 32,0 12,-1 20,-2 25,-2 39,-3 68,-12 85,-25 15,-12 24,-31 26,-59l0 -74 83 0 0 37c0,66 -15,113 -44,139 -32,30 -95,45 -190,45l-53 0 -83 0c-35,0 -64,-3 -85,-9 -21,-5 -47,-19 -77,-39 -15,-14 -29,-34 -41,-61 -12,-27 -18,-56 -18,-87l0 -251c0,-61 15,-106 44,-136 29,-30 66,-48 111,-55 44,-6 101,-9 171,-9 19,0 37,0 54,0 16,0 31,0 43,1 42,4 75,14 100,32 39,27 58,79 58,155l0 16 -85 0zm481 382c10,0 18,0 22,0 39,0 72,-2 100,-7 25,-3 44,-10 56,-22 12,-10 21,-24 25,-42 4,-18 6,-41 6,-70l0 -441 85 0 0 457c0,68 -21,117 -61,146 -26,18 -60,29 -101,34 -20,2 -42,4 -67,5 -24,1 -52,1 -82,1l-17 0 -14 0 -11 0c-14,0 -27,0 -39,0 -12,-1 -23,-2 -34,-4 -29,-3 -57,-10 -84,-23 -27,-12 -46,-32 -59,-59 -12,-28 -19,-58 -19,-92l0 -465 83 0 0 464c0,50 12,81 35,94 14,9 34,15 59,18l96 6 21 0zm430 56l0 -638 147 0 262 546 263 -546 146 0 0 638 -83 0 0 -584 -283 584 -83 0 -282 -583 -2 583 -85 0z"/>
  <path class="fil1" d="M944 632c-520,0 -942,422 -942,943 0,520 422,942 942,942 521,0 943,-422 943,-942 0,-521 -422,-943 -943,-943z"/>
  <path class="fil2" d="M481 1053c-33,0 -60,27 -60,60 0,33 27,60 60,60 33,0 60,-27 60,-60 0,-33 -27,-60 -60,-60z"/>
  <path class="fil2" d="M240 1378c-29,0 -52,23 -52,52 0,29 23,52 52,52 29,0 52,-23 52,-52 0,-29 -23,-52 -52,-52z"/>
  <path class="fil2" d="M587 1474c-29,0 -53,23 -53,52 0,29 24,52 53,52 28,0 52,-23 52,-52 0,-29 -24,-52 -52,-52z"/>
  <path class="fil2" d="M591 1772c-29,0 -52,24 -52,53 0,29 23,52 52,52 29,0 52,-23 52,-52 0,-29 -23,-53 -52,-53z"/>
  <path class="fil2" d="M1514 1377c-29,0 -53,23 -53,52 0,29 24,53 53,53 29,0 52,-24 52,-53 0,-29 -23,-52 -52,-52z"/>
  <path class="fil2" d="M1367 1225c-29,0 -52,23 -52,52 0,29 23,53 52,53 29,0 52,-24 52,-53 0,-29 -23,-52 -52,-52z"/>
  <path class="fil2" d="M1153 1224c-29,0 -52,23 -52,52 0,29 23,52 52,52 29,0 53,-23 53,-52 0,-29 -24,-52 -53,-52z"/>
  <path class="fil2" d="M1004 1370c-29,0 -52,23 -52,52 0,29 23,52 52,52 29,0 53,-23 53,-52 0,-29 -24,-52 -53,-52z"/>
  <path class="fil2" d="M1001 1580c-29,0 -53,24 -53,53 0,29 24,52 53,52 29,0 52,-23 52,-52 0,-29 -23,-53 -52,-53z"/>
  <path class="fil2" d="M1148 1734c-29,0 -52,23 -52,52 0,29 23,52 52,52 29,0 53,-23 53,-52 0,-29 -24,-52 -53,-52z"/>
  <path class="fil2" d="M1509 1589c-29,0 -52,24 -52,52 0,29 23,53 52,53 29,0 53,-24 53,-53 0,-28 -24,-52 -53,-52z"/>
  <path class="fil2" d="M1360 1736c-29,0 -53,23 -53,52 0,29 24,53 53,53 29,0 52,-24 52,-53 0,-29 -23,-52 -52,-52z"/>
  <path class="fil2" d="M1263 1399c-74,0 -134,60 -134,133 0,74 60,134 134,134 74,0 134,-60 134,-134 0,-73 -60,-133 -134,-133z"/>
  <path class="fil2" d="M787 1232c-53,0 -97,44 -97,97 0,53 44,97 97,97 54,0 97,-44 97,-97 0,-53 -43,-97 -97,-97z"/>
  <path class="fil2" d="M1068 959c-54,0 -97,43 -97,96 0,54 43,97 97,97 53,0 96,-43 96,-97 0,-53 -43,-96 -96,-96z"/>
  <path class="fil2" d="M1461 961c-54,0 -97,43 -97,97 0,53 43,97 97,97 53,0 96,-44 96,-97 0,-54 -43,-97 -96,-97z"/>
  <path class="fil2" d="M1732 1242c-54,0 -97,43 -97,96 0,54 43,97 97,97 53,0 97,-43 97,-97 0,-53 -44,-96 -97,-96z"/>
  <path class="fil2" d="M1721 1635c-54,0 -97,44 -97,97 0,54 43,97 97,97 53,0 97,-43 97,-97 0,-53 -44,-97 -97,-97z"/>
  <path class="fil2" d="M785 1622c-54,0 -97,44 -97,97 0,54 43,97 97,97 53,0 97,-43 97,-97 0,-53 -44,-97 -97,-97z"/>
  <path class="fil2" d="M1055 1900c-53,0 -97,43 -97,97 0,53 44,97 97,97 54,0 97,-44 97,-97 0,-54 -43,-97 -97,-97z"/>
  <path class="fil2" d="M1447 1907c-54,0 -97,43 -97,96 0,54 43,97 97,97 53,0 97,-43 97,-97 0,-53 -44,-96 -97,-96z"/>
 </g>
</svg>
