<?xml version="1.0" encoding="UTF-8"?>
<!DOCTYPE svg PUBLIC "-//W3C//DTD SVG 1.1//EN" "http://www.w3.org/Graphics/SVG/1.1/DTD/svg11.dtd">
<!-- Creator: CorelDRAW X8 -->
<svg xmlns="http://www.w3.org/2000/svg" xml:space="preserve" width="42.3332mm" height="42.3332mm" version="1.1" style="shape-rendering:geometricPrecision; text-rendering:geometricPrecision; image-rendering:optimizeQuality; fill-rule:evenodd; clip-rule:evenodd"
viewBox="0 0 4233 4233"
 xmlns:xlink="http://www.w3.org/1999/xlink">
 <defs>
  <style type="text/css">
   <![CDATA[
    .fil0 {fill:#E7BABE}
    .fil1 {fill:#FEFEFE;fill-rule:nonzero}
   ]]>
  </style>
 </defs>
 <g id="Слой_x0020_1">
  <metadata id="CorelCorpID_0Corel-Layer"/>
  <circle class="fil0" cx="2117" cy="2117" r="2117"/>
  <path class="fil1" d="M1692 2213l0 222c0,13 25,28 67,44 54,20 132,34 219,37 23,1 40,20 40,42 -1,23 -20,40 -42,40 -97,-4 -183,-20 -246,-43 -74,-28 -120,-69 -120,-120l0 -255c-3,-3 -6,-7 -10,-10 -18,-22 -30,-51 -29,-82l0 0c4,-404 -14,-520 -70,-873l-12 -80 -1 -3 0 0 0 -163c0,-23 18,-41 41,-41l978 0c22,0 40,18 40,41l0 163c0,4 0,9 -2,13l-11 70c-17,107 -30,192 -41,272l-84 22c10,-87 25,-182 45,-306l5 -31 -723 0c-23,0 -41,-18 -41,-40 0,-23 18,-41 41,-41l730 0 0 -82 -896 0 0 118 11 75c57,358 76,476 71,887l0 0c0,10 4,20 10,28 6,7 15,12 25,13 98,12 195,19 290,20 23,0 41,19 41,41 -1,23 -19,41 -41,40 -96,-1 -191,-7 -285,-18zm144 746l1 -3c11,-56 45,-103 89,-133 36,-24 79,-38 124,-37l21 -107c9,-48 37,-88 74,-113 38,-26 85,-37 133,-27l70 13 20 -108c-32,-14 -60,-36 -79,-65 -25,-37 -36,-83 -27,-131l58 -493 1 -2 0 0c11,-58 44,-106 89,-136 45,-31 102,-44 159,-33l1 0 0 0 2 0c57,12 103,45 133,89 31,45 44,102 33,160 0,1 0,2 -1,4l-127 477 0 0 -1 2c-9,47 -37,86 -74,111 -28,19 -62,30 -97,30l-21 108 70 14c48,9 88,37 113,74 25,38 37,85 27,133l0 0 0 0 -20 107c42,16 77,45 101,81 31,45 44,101 33,159l0 3c-12,56 -45,103 -89,133 -45,30 -102,44 -159,33l-1 -1 0 1 -2 -1c-57,-12 -103,-45 -133,-89 -31,-45 -44,-102 -33,-159l0 -1 0 0 0 -2c12,-57 45,-103 89,-133 36,-25 79,-38 124,-37l21 -107 0 0c5,-29 -1,-58 -17,-80 -15,-23 -39,-39 -67,-45l-104 -20 -1 0 -1 0 -103 -20c-29,-6 -58,1 -80,16 -23,16 -39,39 -45,68l-21 108c43,16 78,44 102,80 31,45 44,102 33,159l0 0 0 0c-11,58 -45,106 -90,136 -45,31 -101,44 -159,33l0 0 0 0 -3 -1c-56,-11 -103,-44 -133,-89 -30,-45 -44,-101 -33,-159l0 0 0 0zm726 -5c-1,0 -2,0 -3,-1 0,0 -1,0 -2,0 -38,-7 -75,2 -104,22 -30,20 -52,51 -59,89l-1 2 0 0c-7,39 2,76 22,106 20,30 51,52 89,60l2 0 0 0c39,7 76,-2 106,-22 30,-20 52,-51 59,-88l1 -3c7,-38 -2,-76 -22,-106 -20,-29 -51,-51 -88,-59zm85 -1241c-20,-30 -51,-51 -89,-59l-2 -1 0 0c-39,-7 -76,2 -106,22 -30,20 -52,52 -60,91l-58 491 -1 3c-5,29 1,57 17,80 15,22 38,38 66,44l2 1 0 0c29,5 57,-2 80,-17 22,-15 38,-38 44,-66l0 -2 0 0 1 -2 128 -479c7,-39 -2,-76 -22,-106zm-741 1260l0 0c-8,38 1,76 22,106 20,29 51,51 88,59l3 0 0 1c38,7 76,-2 106,-22 30,-21 52,-53 59,-91 0,0 0,-1 1,-1 7,-38 -2,-76 -22,-106 -21,-29 -53,-52 -91,-59 -39,-8 -77,1 -107,22 -29,20 -51,51 -59,88l0 3z"/>
  <path class="fil1" d="M3851 1841c62,477 -74,933 -346,1286 -271,353 -677,602 -1154,665 -476,62 -933,-75 -1286,-347 -352,-271 -602,-677 -664,-1154 -62,-476 75,-932 346,-1285 272,-353 678,-603 1154,-665 60,-7 121,-12 182,-14 61,-1 122,0 182,5l-9 108c-57,-5 -115,-7 -171,-5 -56,1 -113,6 -170,13 -447,58 -828,292 -1082,623 -255,331 -384,760 -325,1207 58,446 292,827 623,1082 331,255 759,383 1206,325 447,-58 828,-292 1083,-623 255,-331 383,-760 325,-1207l106 -14z"/>
 </g>
</svg>
