<?xml version="1.0" encoding="UTF-8"?>
<!DOCTYPE svg PUBLIC "-//W3C//DTD SVG 1.1//EN" "http://www.w3.org/Graphics/SVG/1.1/DTD/svg11.dtd">
<!-- Creator: CorelDRAW X8 -->
<svg xmlns="http://www.w3.org/2000/svg" xml:space="preserve" width="42.3332mm" height="42.3332mm" version="1.1" style="shape-rendering:geometricPrecision; text-rendering:geometricPrecision; image-rendering:optimizeQuality; fill-rule:evenodd; clip-rule:evenodd"
viewBox="0 0 4233 4233"
 xmlns:xlink="http://www.w3.org/1999/xlink">
 <defs>
  <style type="text/css">
   <![CDATA[
    .fil0 {fill:#E7BABE}
    .fil1 {fill:#FEFEFE;fill-rule:nonzero}
   ]]>
  </style>
 </defs>
 <g id="Слой_x0020_1">
  <metadata id="CorelCorpID_0Corel-Layer"/>
  <circle class="fil0" cx="2117" cy="2117" r="2117"/>
  <path class="fil1" d="M1181 2169l2 -3c56,-55 129,-84 203,-85 59,0 119,17 170,52l105 -107c47,-48 109,-72 171,-73 62,-1 125,22 172,69l70 68 106 -108c-27,-40 -41,-87 -42,-134 -1,-61 22,-123 68,-170l441 -521 2 -2 0 0c56,-58 131,-87 206,-88 74,-1 149,27 207,83l0 0 0 0 3 3c55,56 84,129 85,203 0,74 -27,149 -83,207 -2,1 -3,3 -5,4l-507 449 0 0 -3 3c-46,46 -107,69 -168,70 -47,1 -94,-12 -135,-39l-105 108 69 68c48,47 73,110 73,172 1,62 -22,124 -69,172l0 0 0 1 -105 107c37,50 55,109 56,169 1,74 -27,149 -83,207l-3 3c-56,55 -129,84 -203,85 -74,0 -149,-27 -207,-83l0 -1 0 0 -3 -2c-55,-56 -84,-129 -85,-203 0,-75 27,-150 83,-207l1 -1 0 0 2 -2c56,-56 129,-84 203,-85 59,-1 119,17 170,52l105 -107 0 0c28,-29 42,-67 42,-104 -1,-38 -16,-75 -44,-103l-104 -101 -1 -1 -1 -1 -103 -101c-29,-28 -67,-42 -104,-42 -37,0 -75,15 -103,44l-105 107c37,50 55,110 56,169 1,75 -27,150 -83,207l0 0 0 0c-56,58 -131,87 -206,88 -75,1 -149,-27 -207,-83l0 0 -1 0 -2 -3c-56,-56 -84,-129 -85,-203 -1,-74 27,-149 83,-207l1 0 0 0zm834 544c-1,-1 -2,-2 -3,-2 0,-1 -1,-2 -2,-3 -38,-36 -87,-54 -136,-53 -49,0 -98,19 -135,56l-2 3 0 0c-38,38 -56,88 -56,138 1,49 20,97 57,135l2 2 0 0c39,38 89,56 138,56 49,-1 98,-20 135,-57l2 -2c38,-39 57,-89 56,-139 -1,-48 -19,-97 -56,-134zm1038 -1357c-1,-48 -20,-97 -57,-134l-2 -3 0 0c-39,-37 -89,-56 -139,-55 -49,0 -99,20 -136,58l-440 519 -2 3c-28,29 -42,66 -42,104 1,36 15,72 42,100l3 3 0 0c28,28 66,42 103,41 36,0 73,-14 101,-42l2 -2 0 0 2 -2 510 -452c37,-38 55,-88 55,-138zm-1804 881l0 0c-37,39 -55,89 -55,139 1,48 20,97 57,134l2 3 0 0c39,37 89,56 138,55 50,0 99,-20 137,-59 0,0 1,0 1,0 37,-38 55,-88 55,-138 -1,-50 -20,-99 -59,-137 -38,-38 -89,-56 -138,-56 -49,1 -98,20 -135,57l-3 2z"/>
  <path class="fil1" d="M3842 1892c62,476 -75,932 -347,1285 -271,353 -677,602 -1153,665 -477,62 -933,-75 -1286,-347 -353,-271 -602,-677 -664,-1153 -62,-477 74,-933 346,-1286 271,-353 677,-602 1154,-664 60,-8 121,-13 181,-14 62,-2 123,0 182,4l-8 108c-58,-5 -115,-6 -171,-5 -57,1 -114,6 -170,13 -447,59 -828,292 -1083,624 -255,331 -383,759 -325,1206 59,446 293,827 624,1082 331,255 759,383 1206,325 447,-58 828,-292 1082,-623 255,-331 383,-760 325,-1206l107 -14z"/>
 </g>
</svg>
