<?xml version="1.0" encoding="UTF-8"?>
<!DOCTYPE svg PUBLIC "-//W3C//DTD SVG 1.1//EN" "http://www.w3.org/Graphics/SVG/1.1/DTD/svg11.dtd">
<!-- Creator: CorelDRAW X8 -->
<svg xmlns="http://www.w3.org/2000/svg" xml:space="preserve" width="42.3332mm" height="42.3332mm" version="1.1" style="shape-rendering:geometricPrecision; text-rendering:geometricPrecision; image-rendering:optimizeQuality; fill-rule:evenodd; clip-rule:evenodd"
viewBox="0 0 4233 4233"
 xmlns:xlink="http://www.w3.org/1999/xlink">
 <defs>
  <style type="text/css">
   <![CDATA[
    .fil0 {fill:#E7BABE}
    .fil1 {fill:#FEFEFE;fill-rule:nonzero}
   ]]>
  </style>
 </defs>
 <g id="Слой_x0020_1">
  <metadata id="CorelCorpID_0Corel-Layer"/>
  <circle class="fil0" cx="2117" cy="2117" r="2117"/>
  <path class="fil1" d="M1686 2404c25,-25 65,-25 90,0 24,25 24,65 0,90l-357 356 143 142c24,25 24,65 0,90 -25,25 -65,25 -90,0l-369 -369c-25,-25 -25,-65 0,-90 24,-25 65,-25 89,0l137 137 357 -356zm1244 -1238c24,-25 64,-25 89,0 25,24 25,65 0,89l-278 278c37,47 64,94 79,138 24,72 18,138 -23,180l-1 1 0 0 -648 649 123 123c24,24 24,65 0,89 -25,25 -65,25 -90,0l-538 -538 -1 -1 -2 -1 -183 -184c-25,-25 -25,-65 0,-89 25,-25 65,-25 90,0l139 139 650 -649c44,-44 109,-49 179,-26 45,16 92,43 137,79l278 -277zm-872 1245l648 -648 0 0c6,-6 3,-25 -6,-52 -14,-41 -45,-89 -90,-134l-2 -3c-2,-1 -3,-2 -4,-4 -42,-41 -89,-72 -129,-86 -25,-8 -43,-10 -49,-5l-650 650 282 282z"/>
  <path class="fil1" d="M3842 1892c62,476 -75,933 -346,1285 -272,353 -678,603 -1154,665 -477,62 -933,-75 -1286,-346 -353,-272 -602,-678 -665,-1154 -62,-477 75,-933 347,-1286 271,-353 677,-603 1154,-665 60,-7 121,-12 181,-14 62,-1 123,0 182,5l-8 108c-58,-5 -115,-7 -171,-5 -57,1 -114,6 -170,13 -447,58 -828,292 -1083,623 -255,331 -383,760 -325,1207 58,447 292,828 624,1082 331,255 759,383 1206,325 447,-58 828,-292 1082,-623 255,-331 383,-760 325,-1207l107 -13z"/>
 </g>
</svg>
