<?xml version="1.0" encoding="UTF-8"?>
<!DOCTYPE svg PUBLIC "-//W3C//DTD SVG 1.1//EN" "http://www.w3.org/Graphics/SVG/1.1/DTD/svg11.dtd">
<!-- Creator: CorelDRAW X8 -->
<svg xmlns="http://www.w3.org/2000/svg" xml:space="preserve" width="42.3332mm" height="42.3332mm" version="1.1" style="shape-rendering:geometricPrecision; text-rendering:geometricPrecision; image-rendering:optimizeQuality; fill-rule:evenodd; clip-rule:evenodd"
viewBox="0 0 4233 4233"
 xmlns:xlink="http://www.w3.org/1999/xlink">
 <defs>
  <style type="text/css">
   <![CDATA[
    .fil0 {fill:#E7BABE}
    .fil1 {fill:#FEFEFE;fill-rule:nonzero}
   ]]>
  </style>
 </defs>
 <g id="Слой_x0020_1">
  <metadata id="CorelCorpID_0Corel-Layer"/>
  <circle class="fil0" cx="2117" cy="2117" r="2117"/>
  <path class="fil1" d="M1395 2432l0 223c0,12 25,28 67,43 54,21 132,35 220,38 22,1 40,19 39,42 -1,22 -20,40 -42,39 -97,-3 -183,-19 -246,-43 -74,-27 -120,-69 -120,-119l0 -256c-3,-3 -6,-6 -10,-10 -18,-22 -29,-51 -29,-82l0 0c4,-404 -14,-520 -70,-873l-12 -80 -1 -3 0 0 0 -163c0,-22 18,-41 41,-41l978 0c22,0 41,19 41,41l0 163c0,5 -1,9 -3,13l-11 70c-17,108 -30,193 -41,272 88,-18 190,-29 299,-29 162,0 310,24 417,62 119,43 193,107 194,181l0 2 0 235c10,11 19,22 25,33 11,19 16,38 16,58l0 611c0,75 -79,140 -207,182 -115,39 -272,62 -445,62 -173,0 -330,-23 -445,-62 -128,-42 -207,-107 -207,-182l0 -611c0,-20 5,-39 16,-58 6,-11 15,-22 25,-33l0 -235 0 -2c1,-74 75,-138 194,-181 11,-4 22,-7 34,-11 10,-86 25,-182 45,-306l5 -30 -723 0c-23,0 -41,-18 -41,-41 0,-22 18,-41 41,-41l730 0 0 -81 -896 0 0 117 12 76c56,358 75,476 70,886l0 0c0,11 4,21 10,28 6,7 15,12 25,14 98,11 195,18 291,20 22,0 40,18 40,41 -1,22 -19,40 -41,40 -96,-2 -191,-8 -285,-19zm768 -634c-2,1 -5,1 -7,2 -18,5 -35,10 -51,16 -86,31 -140,68 -140,106l0 326c0,37 54,74 140,105 99,36 237,58 390,58 153,0 291,-22 390,-58 86,-31 140,-68 140,-105l0 -200c-31,21 -69,40 -113,56 -107,38 -255,62 -417,62 -70,0 -137,-4 -200,-13l0 0c-66,-8 -126,-21 -178,-36 -22,-7 -34,-29 -28,-51 7,-21 29,-34 51,-27 49,14 104,26 165,34 59,7 122,12 190,12 153,0 291,-22 390,-58 86,-31 140,-68 140,-105 0,-38 -54,-75 -140,-106 -99,-35 -237,-57 -390,-57 -125,0 -240,14 -332,39zm902 542c-33,35 -86,66 -153,90 -107,38 -255,62 -417,62 -162,0 -310,-24 -417,-62 -67,-24 -120,-55 -153,-90l0 519c0,36 57,74 151,105 106,36 254,58 419,58 165,0 313,-22 419,-58 94,-31 151,-69 151,-105l0 -519z"/>
  <path class="fil1" d="M3911 1869c63,476 -74,933 -346,1286 -271,353 -677,602 -1154,664 -476,62 -933,-75 -1285,-346 -353,-272 -603,-678 -665,-1154 -62,-477 75,-933 347,-1286 271,-353 677,-602 1153,-664 61,-8 121,-13 182,-14 62,-2 122,0 182,5l-8 107c-58,-5 -115,-6 -171,-5 -57,2 -114,6 -171,13 -447,59 -828,293 -1082,624 -255,331 -383,759 -325,1206 58,447 292,828 623,1083 331,254 760,383 1206,324 447,-58 828,-292 1083,-623 255,-331 383,-759 325,-1206l106 -14z"/>
 </g>
</svg>
