<?xml version="1.0" encoding="utf-8"?>
<!-- Generator: Adobe Illustrator 21.1.0, SVG Export Plug-In . SVG Version: 6.00 Build 0)  -->
<svg version="1.1" id="_x23_Layer_1" xmlns="http://www.w3.org/2000/svg" xmlns:xlink="http://www.w3.org/1999/xlink" x="0px"
	 y="0px" width="333.4px" height="126.5px" viewBox="0 0 333.4 126.5" style="enable-background:new 0 0 333.4 126.5;"
	 xml:space="preserve">
<style type="text/css">
	.st0{fill-rule:evenodd;clip-rule:evenodd;fill:#FFFFFF;}
	.st1{fill-rule:evenodd;clip-rule:evenodd;fill:#004386;}
	.st2{fill-rule:evenodd;clip-rule:evenodd;fill:#62C3D0;}
</style>
<path class="st0" d="M304.1,94.1l3.3,9.9l-8.1,3.1c-38.1,14.7-86.4,19.4-126.9,19.4c-38,0-80.9-4.1-117.3-16l-9.9-3.5
	C25.7,99.5,0,85.5,0,63.3C0,37.7,33.9,23,54.1,16.3C90.6,4.2,133.9,0,172.3,0c40.5,0,88.8,4.8,126.9,19.4l8.1,3.1l-2.8,8.5
	c13.9,6.1,28.8,16.1,28.8,31.4C333.4,77.9,318.1,88,304.1,94.1z"/>
<path class="st1" d="M172.3,9.1c49.4,0,93.7,7.3,123.6,18.8c-24.4-6.9-56.1-11.1-90.8-11.1c-77.3,0-139.9,20.8-139.9,46.4
	c0,25.6,62.7,46.4,139.9,46.4c34.6,0,66.3-4.2,90.8-11.1c-29.9,11.5-74.2,18.8-123.6,18.8C82.2,117.4,9.1,93.1,9.1,63.3
	C9.1,33.4,82.2,9.1,172.3,9.1z"/>
<path class="st2" d="M209.1,100.6c-34.9,0-66.1-5.1-87.2-13.3c17.2,4.9,39.6,7.8,64,7.8c54.5,0,98.7-14.7,98.7-32.7
	S240.5,29.7,186,29.7c-24.4,0-46.8,2.9-64,7.8c21.1-8.1,52.3-13.3,87.2-13.3c63.6,0,115.1,17.1,115.1,38.2
	C324.2,83.5,272.7,100.6,209.1,100.6z"/>
<path class="st2" d="M96.6,101.2c-1.9,0.3-41.3,0.1-41.4,0.1l-1,0l0-1V83.7h2v15.7c6.1,0,38.5,0.1,40.1-0.1L96.6,101.2z"/>
<path class="st2" d="M87.3,48.6c0.3,1.9,0.1,41.3,0.1,41.4l0,1h-1H69.9v-2h15.7c0-6.1,0.1-38.5-0.1-40.1L87.3,48.6z"/>
<path class="st1" d="M96.1,52.8h9.6l3.7,12.4l3.7-12.4h9.6v20.3h-6V57.6l-4.6,15.5h-5.4l-4.6-15.5v15.5h-6V52.8L96.1,52.8z
	 M127.4,52.8H147v4.3h-12.3v3.2h11.4v4.1h-11.4v4h12.6v4.6h-20V52.8L127.4,52.8z M151.4,52.8h10.9c2.1,0,3.9,0.3,5.2,0.7
	c1.3,0.5,2.4,1.2,3.3,2.2c0.9,0.9,1.5,2,1.9,3.3c0.4,1.2,0.6,2.6,0.6,3.9c0,2.2-0.3,3.9-0.9,5.1c-0.6,1.2-1.4,2.2-2.4,3
	c-1,0.8-2.1,1.4-3.3,1.6c-1.6,0.4-3.1,0.6-4.4,0.6h-10.9V52.8L151.4,52.8z M158.7,57.4v11.1h1.8c1.5,0,2.6-0.1,3.3-0.4
	c0.6-0.3,1.2-0.8,1.5-1.5c0.4-0.7,0.5-1.9,0.5-3.5c0-2.2-0.4-3.6-1.2-4.4c-0.8-0.8-2.2-1.2-4.1-1.2H158.7L158.7,57.4z M177.3,52.8
	h7.3v20.3h-7.3V52.8L177.3,52.8z M205.7,64.8l6.4,1.7c-0.4,1.5-1.1,2.8-2,3.9c-0.9,1-2.1,1.8-3.5,2.3c-1.4,0.5-3.1,0.8-5.2,0.8
	c-2.6,0-4.7-0.3-6.3-1c-1.6-0.6-3-1.8-4.2-3.4c-1.2-1.6-1.8-3.7-1.8-6.2c0-3.4,1-6,3.1-7.8c2.1-1.8,5-2.7,8.8-2.7c3,0,5.3,0.5,7,1.6
	c1.7,1,3,2.6,3.8,4.8l-6.5,1.2c-0.2-0.6-0.5-1.1-0.7-1.4c-0.4-0.5-0.9-0.8-1.5-1.1c-0.6-0.3-1.3-0.4-2-0.4c-1.7,0-2.9,0.6-3.8,1.7
	c-0.7,0.9-1,2.2-1,4c0,2.3,0.4,3.8,1.2,4.6c0.8,0.8,1.9,1.3,3.4,1.3c1.4,0,2.5-0.3,3.2-1C204.9,67.1,205.4,66.1,205.7,64.8
	L205.7,64.8z M231.1,52.8h7.3v12.1c0,1.2-0.2,2.3-0.7,3.4c-0.4,1.1-1.1,2-2.1,2.8c-0.9,0.8-1.9,1.4-2.9,1.7
	c-1.4,0.4-3.1,0.7-5.1,0.7c-1.2,0-2.4-0.1-3.8-0.2c-1.4-0.1-2.5-0.4-3.4-0.8c-0.9-0.4-1.8-1-2.5-1.8c-0.8-0.8-1.3-1.5-1.6-2.3
	c-0.5-1.3-0.7-2.4-0.7-3.4V52.8h7.3v12.4c0,1.1,0.4,2,1.1,2.6c0.7,0.6,1.7,0.9,3,0.9c1.3,0,2.3-0.3,3-0.9c0.7-0.6,1.1-1.5,1.1-2.6
	V52.8L231.1,52.8z M243.2,52.8h9.6l3.7,12.4l3.7-12.4h9.6v20.3h-6V57.6l-4.6,15.5h-5.4l-4.6-15.5v15.5h-6V52.8z"/>
<ellipse class="st2" cx="55.2" cy="83.8" rx="4" ry="4"/>
<ellipse class="st2" cx="69.9" cy="90.1" rx="4" ry="4"/>
<ellipse class="st2" cx="96.5" cy="100.2" rx="4" ry="4"/>
<ellipse class="st2" cx="86.4" cy="48.8" rx="4" ry="4"/>
</svg>
